<svg width="59" height="46" viewBox="0 0 59 46" fill="none" xmlns="http://www.w3.org/2000/svg">
<path d="M33.725 30.3738C33.5641 10.2483 47.8611 1.88118 57.226 0.566871L57.2915 8.76231C54.0708 9.47421 50.737 11.425 48.1422 14.0621C45.4371 16.8113 43.4864 20.3575 43.3463 24.1059L43.3142 24.9619L44.0753 24.5688L44.093 24.5597C44.4353 24.3827 45.6132 23.7735 47.0797 23.7617C50.19 23.7369 52.7718 24.7975 54.5825 26.635C56.3945 28.4739 57.4703 31.1277 57.496 34.3524C57.5416 40.0562 52.814 44.8946 46.276 44.9469C42.6998 44.9755 39.5931 43.5607 37.3653 41.0419C35.1338 38.5189 33.7608 34.8597 33.725 30.3738Z" fill="#FED146" fill-opacity="0.2" stroke="#FED146"/>
<path d="M0.740616 30.6377C0.579754 10.5122 14.8767 2.14509 24.2416 0.830787L24.3071 9.02623C21.0864 9.73812 17.7527 11.6889 15.1579 14.326C12.4527 17.0753 10.5021 20.6214 10.3619 24.3698L10.3299 25.2258L11.0909 24.8328C11.0966 24.8299 11.1025 24.8268 11.1087 24.8236C11.4509 24.6466 12.6288 24.0374 14.0954 24.0257C17.2078 24.0008 19.7895 25.0614 21.5996 26.8989C23.411 28.7377 24.4859 31.3914 24.5117 34.6163C24.5573 40.3201 19.8296 45.1586 13.2916 45.2108C9.71545 45.2394 6.60873 43.8246 4.38095 41.3058C2.1494 38.7828 0.776472 35.1236 0.740616 30.6377Z" fill="#FED146" fill-opacity="0.2" stroke="#FED146"/>
</svg>
