<svg width="57" height="45" viewBox="0 0 57 45" fill="none" xmlns="http://www.w3.org/2000/svg">
<path d="M23.9286 14.9829C23.9286 34.8479 9.75548 42.996 0.5 44.2228V36.142C3.68571 35.4632 6.99195 33.5632 9.57436 30.9803C12.2679 28.2862 14.2231 24.7986 14.3912 21.0964L14.43 20.2407L13.6659 20.6276L13.6483 20.6365C13.3091 20.8085 12.1423 21.4002 10.6956 21.4002C7.62574 21.4002 5.08645 20.3331 3.31429 18.5057C1.54087 16.677 0.5 14.0497 0.5 10.8666C0.5 5.23782 5.20339 0.5 11.6565 0.5C15.1862 0.5 18.241 1.92078 20.4197 4.42411C22.6021 6.93173 23.9286 10.5542 23.9286 14.9829Z" fill="#FED146" fill-opacity="0.2" stroke="#FED146"/>
<path d="M56.4989 14.9829C56.4989 34.8479 42.3258 42.996 33.0703 44.2228V36.142C36.256 35.4632 39.5623 33.5632 42.1447 30.9803C44.8383 28.2862 46.7934 24.7986 46.9615 21.0964L47.0004 20.2407L46.2362 20.6276C46.2306 20.6305 46.2248 20.6334 46.2187 20.6365C45.8795 20.8085 44.7126 21.4002 43.266 21.4002C40.194 21.4002 37.6547 20.3331 35.8831 18.5057C34.1103 16.6771 33.0703 14.0498 33.0703 10.8666C33.0703 5.23782 37.7737 0.5 44.2268 0.5C47.7565 0.5 50.8113 1.92078 52.99 4.42411C55.1725 6.93173 56.4989 10.5542 56.4989 14.9829Z" fill="#FED146" fill-opacity="0.2" stroke="#FED146"/>
</svg>
